<svg>
	<symbol id="icon-1" width="100%" height="100%" viewBox="0 0 30 30" xmlns="http://www.w3.org/2000/svg">
	<path d="M0 14.4835H14.4829V0H0V14.4835ZM4.13749 6.20739H6.20657V4.13804C6.20657 3.56739 6.66998 3.1037 7.24145 3.1037C7.81291 3.1037 8.27632 3.56674 8.27632 4.13804V6.20739H10.3454C10.9155 6.20739 11.3796 6.67044 11.3796 7.24174C11.3796 7.81239 10.9162 8.27609 10.3454 8.27609H8.27632V10.3441C8.27632 10.9154 7.81291 11.3791 7.24145 11.3791C6.66998 11.3791 6.20657 10.9154 6.20657 10.3441V8.27609H4.13749C3.56669 8.27609 3.10262 7.81305 3.10262 7.24174C3.10328 6.67109 3.56669 6.20739 4.13749 6.20739ZM15.5171 0V14.4835H30V0H15.5171ZM25.8625 8.27609H19.6553C19.0845 8.27609 18.6204 7.81305 18.6204 7.24174C18.6204 6.67044 19.0838 6.20739 19.6553 6.20739H25.8625C26.4333 6.20739 26.8967 6.67044 26.8967 7.24174C26.896 7.81305 26.4333 8.27609 25.8625 8.27609ZM15.5171 30H30V15.5172H15.5171V30ZM19.6546 20.1737H25.8618C26.4326 20.1737 26.896 20.6374 26.896 21.2074C26.896 21.778 26.4333 22.2417 25.8618 22.2417H19.6546C19.0838 22.2417 18.6197 21.778 18.6197 21.2074C18.6204 20.6374 19.0838 20.1737 19.6546 20.1737ZM19.6546 23.2754H25.8618C26.4326 23.2754 26.896 23.7391 26.896 24.3104C26.896 24.8811 26.4333 25.3448 25.8618 25.3448H19.6546C19.0838 25.3448 18.6197 24.8811 18.6197 24.3104C18.6204 23.7391 19.0838 23.2754 19.6546 23.2754ZM0 30H14.4829V15.5172H0V30ZM3.92336 20.9041C3.52028 20.5004 3.52028 19.8463 3.92336 19.4426C4.32644 19.0383 4.98342 19.0383 5.3865 19.4426L7.24145 21.2967L9.0964 19.4426C9.49947 19.0383 10.1558 19.0383 10.5589 19.4426C10.9626 19.8463 10.9626 20.5004 10.5589 20.9041L8.70392 22.7596L10.5589 24.6143C10.9626 25.018 10.9626 25.6735 10.5589 26.0772C10.3573 26.2794 10.0928 26.3804 9.82696 26.3804C9.56245 26.3804 9.29727 26.2794 9.09573 26.0772L7.24078 24.223L5.38583 26.0772C5.18363 26.2794 4.91913 26.3804 4.65395 26.3804C4.38877 26.3804 4.12425 26.2794 3.92205 26.0772C3.51897 25.6735 3.51897 25.018 3.92205 24.6143L5.77699 22.7596L3.92336 20.9041Z"/>
	</symbol>
	<symbol id="icon-2" width="100%" height="100%" viewBox="0 0 38 38" xmlns="http://www.w3.org/2000/svg">
	<path d="M7.17285 8.51272C9.49686 8.51272 11.3808 6.6071 11.3808 4.25637C11.3808 1.90565 9.49686 0 7.17285 0C4.84884 0 2.96484 1.90565 2.96484 4.25637C2.96484 6.6071 4.84884 8.51272 7.17285 8.51272Z"/>
	<path d="M30.8291 0C33.1529 0 35.0371 1.90516 35.0371 4.25637C35.0371 6.60759 33.1536 8.512 30.8291 8.512C28.5046 8.512 26.6211 6.60687 26.6211 4.25637C26.6211 1.90588 28.5046 0 30.8291 0Z"/>
	<path d="M33.9855 8.06665C33.1568 8.84871 32.0486 9.33219 30.8281 9.33219C29.6068 9.33219 28.4993 8.84871 27.6706 8.06665C25.8768 8.54581 24.4499 9.93797 23.9015 11.7187C22.3516 11.4294 20.705 11.2733 19 11.2733C17.295 11.2733 15.6491 11.4294 14.0985 11.7187C13.5508 9.93797 12.1232 8.54581 10.3301 8.06665C9.50143 8.84871 8.39322 9.33147 7.17264 9.33147C5.95207 9.33147 4.84388 8.84871 4.01523 8.06665C1.70851 8.68323 0 10.8064 0 13.3295V17.7471L0.0113744 17.8154L0.312253 17.9111C1.25116 18.2075 2.14526 18.4334 2.99952 18.6104C2.60547 19.4652 2.39064 20.3638 2.39064 21.2926C2.39064 25.3036 6.31981 28.77 11.9774 30.3687C11.7683 30.9478 11.6524 31.5716 11.6524 32.2234V36.641L11.6638 36.71L11.9646 36.8057C14.7991 37.7007 17.2623 38 19.2895 38C23.2492 38 25.5439 36.8582 25.6854 36.7856L25.9671 36.641H25.997V32.2234C25.997 31.604 25.8931 31.009 25.7039 30.4557C31.5322 28.8981 35.6101 25.3777 35.6101 21.2926C35.6101 20.4084 35.4166 19.55 35.0581 18.7327C36.6848 18.3924 37.601 17.937 37.6884 17.8917L37.9701 17.7471H38V13.3295C38.0007 10.8064 36.2929 8.68323 33.9855 8.06665ZM34.462 21.2926C34.462 24.9115 30.6516 28.0289 25.2103 29.4017C24.494 28.216 23.3446 27.3239 21.9832 26.9605C21.1538 27.7426 20.0456 28.2247 18.825 28.2247C17.6052 28.2247 16.4963 27.7426 15.6676 26.9605C14.3361 27.316 13.2065 28.1757 12.4874 29.3233C7.20822 27.9117 3.53868 24.8424 3.53868 21.2919C3.53868 20.435 3.75633 19.6069 4.15465 18.8227C5.42573 19.0227 6.59082 19.1054 7.63713 19.1054C11.5962 19.1054 13.8915 17.9636 14.0331 17.891L14.3147 17.7464L14.3446 17.7471V13.3288C14.3446 13.1669 14.3368 13.0065 14.3233 12.8489C15.7999 12.5791 17.3704 12.4331 19 12.4331C20.6303 12.4331 22.2008 12.5791 23.6774 12.8489C23.6639 13.0072 23.6561 13.1669 23.6561 13.3288V17.7464L23.6675 17.8147L23.9691 17.9097C26.8029 18.8047 29.2661 19.104 31.2932 19.104C32.2663 19.104 33.1362 19.0356 33.9008 18.9299C34.2636 19.6839 34.462 20.4746 34.462 21.2926Z"/>
	<path d="M18.8245 27.4061C21.1481 27.4061 23.0318 25.5007 23.0318 23.1504C23.0318 20.8001 21.1481 18.8948 18.8245 18.8948C16.5009 18.8948 14.6172 20.8001 14.6172 23.1504C14.6172 25.5007 16.5009 27.4061 18.8245 27.4061Z"/>
	</symbol>
	<symbol id="icon-3" width="100%" height="100%" viewBox="0 0 30 30" xmlns="http://www.w3.org/2000/svg">
	<path fill-rule="evenodd" clip-rule="evenodd" d="M4.39453 0H25.6055C28.0286 0 30 1.97139 30 4.39453V23.8477C30 26.2708 28.0286 28.2422 25.6055 28.2422V30H22.0898V28.2422H7.91016V30H4.39453V28.2422C1.97139 28.2422 0 26.2708 0 23.8477V4.39453C0 1.97139 1.97139 0 4.39453 0ZM3.51562 24.7266H26.4844V3.51562H3.51562V24.7266ZM5.27344 5.27344V22.9688H24.7266V5.27344H5.27344ZM10.0195 20.2734H8.26172V7.96875H10.0195V20.2734ZM18.2812 18.8086C15.6966 18.8086 13.5938 16.7058 13.5938 14.1211C13.5938 11.5364 15.6966 9.43359 18.2812 9.43359C20.8659 9.43359 22.9688 11.5364 22.9688 14.1211C22.9688 16.7058 20.8659 18.8086 18.2812 18.8086ZM18.2812 11.1914C16.6658 11.1914 15.3516 12.5057 15.3516 14.1211C15.3516 15.7365 16.6658 17.0508 18.2812 17.0508C19.8967 17.0508 21.2109 15.7365 21.2109 14.1211C21.2109 12.5057 19.8967 11.1914 18.2812 11.1914ZM18.2812 15.293C17.6351 15.293 17.1094 14.7673 17.1094 14.1211C17.1094 13.4749 17.6351 12.9492 18.2812 12.9492C18.9274 12.9492 19.4531 13.4749 19.4531 14.1211C19.4531 14.7673 18.9274 15.293 18.2812 15.293Z"/>
	</symbol>
</svg>